{"scene":0,"scenes":[{"nodes":[0]}],"asset":{"version":"2.0","generator":"https://github.com/mikedh/trimesh"},"accessors":[{"componentType":5125,"type":"SCALAR","bufferView":0,"count":1099449,"max":[182957],"min":[0]},{"componentType":5126,"type":"VEC3","byteOffset":0,"bufferView":1,"count":182958,"max":[52.8515739440918,68.0747299194336,480.5075378417969],"min":[-72.61280059814453,-42.89173126220703,439.2092590332031]}],"meshes":[{"name":"odm_mesh.ply","extras":{"processed":true},"primitives":[{"attributes":{"POSITION":1},"indices":0,"mode":4}]}],"nodes":[{"name":"world","children":[1]},{"name":"odm_mesh.ply","mesh":0}],"buffers":[{"uri":"gltf_buffer_0.bin","byteLength":4397796},{"uri":"gltf_buffer_1.bin","byteLength":2195496}],"bufferViews":[{"buffer":0,"byteOffset":0,"byteLength":4397796},{"buffer":1,"byteOffset":0,"byteLength":2195496}]}